<svg preserveAspectRatio="xMidYMid meet" data-bbox="32.996 12 134.007 176" viewBox="32.996 12 134.007 176" height="200" width="200" xmlns="http://www.w3.org/2000/svg" data-type="color" role="img" aria-label="South Pasadena Animal  Hospital">
    <g>
        <path d="M78.055 186.844c0 .904 1.363.905 1.363 0v-40.13c-.458-.204-.909-.423-1.363-.635v40.765z" fill="#EC6256" data-color="1"/>
        <path d="M137.93 94.674c-36.858-24.566-36.745-51.73-43.177-67.992-3.543-8.994-9.687-7.975-24.787-7.975-14.173 0-28.447 7.302-34.353 33.586-1.672 7.413-2.617 15.799-2.617 25.12 0 31.087 18.487 57.837 45.057 69.909.454.206.904.419 1.363.616a76.494 76.494 0 0 0 30.349 6.243c42.401 0 63.443-35.986 28.165-59.507z" fill="#BDD9D9" data-color="2"/>
        <path fill="#EC6256" d="M87.962 32.896l2.409 9.233 14.853-9.233H87.962z" data-color="1"/>
        <path d="M96.915 123.905v63.437c0 .877 1.363.878 1.363 0v-63.437c-.001-.877-1.363-.878-1.363 0z" fill="#EC6256" data-color="1"/>
        <path fill="#014D5F" d="M74.334 30.35a3.086 3.086 0 1 1-4.364 4.363 3.086 3.086 0 0 1 4.364-4.364z" data-color="3"/>
        <path d="M94.958 26.636C91.415 17.642 85.8 12 70.701 12 56.528 12 41.52 26.009 35.614 52.292c0 0 19.642-33.024 33.27-32.116s11.811 7.268 19.079 7.268a31.404 31.404 0 0 0 6.995-.808z" fill="#014D5F" data-color="3"/>
        <path d="M148.069 94.341l-6.421 1.9 5.324-2.921-44.085-41.032S68.884 67.425 79.786 94.693c.925 2.315 2.332 4.355 4.113 6.161.207.21 3.885.62 4.101.825.332.314-2.792.42-2.434.718 20.98 17.486 81.437 9.566 81.437 9.566l-18.934-17.622z" fill="#014D5F" data-color="3"/>
        <path d="M148.09 94.36l-1.131-1.053c-19.971 7.791-41.822 10-63.06 7.547a23.556 23.556 0 0 0 1.698 1.568c21.112 2.19 42.721-.235 62.493-8.062z" fill="#FFFFFF" data-color="4"/>
    </g>
</svg>