<svg preserveAspectRatio="xMidYMid meet" data-bbox="20 54.497 160 91.003" xmlns="http://www.w3.org/2000/svg" width="200" height="200" viewBox="20 54.497 160 91.003" data-type="color" role="img" aria-label="South Pasadena Animal  Hospital">
    <g>
        <path fill="#F4C0A6" d="M100.903 105.555a413.519 413.519 0 00-4.317-10.441c-.889-2.064-5.43-4.484-8.014-6.102-2.264-1.417-7.051.609-11.335 3.036-2.336 1.323-4.523 2.766-6.069 3.836-.153.106-.952.599-1.739 1.084l.046-.146c1.574-2.365 5.225-8.299 7.934-14.701 1.509-3.565 8.037-10.896 9.568-14.422 2.924-6.73-1.218-7.291-1.218-7.291l-5.44 7.903-11.15 13.57-.449.657c.156-.967.263-1.607.297-1.742 1.849-7.347 1.417-12.677 2.096-16.444C72.89 54.5 68.904 54.5 68.904 54.5l-4.09 10.685-3.242 12.31-4.339 9.39-.068-.072s-3.622-15.02-3.3-17.25c1.484-10.275-3.079-11.237-3.079-11.237s-2.009 4.926-2.146 9.183c-.256 7.974.33 17.926.33 19.179 0 1.923-4.718 17.166-6.312 21.011-1.595 3.846-19.646 12.743-19.646 12.743l-3.012.962.008 24.096s26.094-12.147 31.108-10.759c15.503 4.294 19.954-5.461 30.054-5.461 7.525 0 13.575 6.405 16.17 9.67.569.715 1.799.513 2.067-.335l.368-1.163c0-5.886-4.447-10.577-9.475-13.839-3.362-2.181-6.741-3.756-10.533-4.961-3.253-1.034-6-2.445-6.805-6.089-.983-4.45 1.236-7.234 3.383-9.451 1.965-2.029 5.523-4.626 8.3-5.387 1.986-.544 3.751-.497 5.548.568 1.928 1.143 2.563 3.393 3.923 5.063 1.643 2.019 3.376 2.956 5.842 3.245.653.078 1.167-.487.945-1.046z" data-color="1"/>
        <path fill="#629CEF" d="M33.116 140.841c7.554-3.372 15.303-6.847 18-6.1 15.503 4.294 19.954-5.461 30.054-5.461 7.525 0 13.575 6.405 16.17 9.67.569.715 1.799.513 2.067-.335l.368-1.163c0-5.886-4.447-10.577-9.475-13.839-3.362-2.181-6.741-3.756-10.533-4.961-3.253-1.034-6-2.445-6.805-6.089-.983-4.45 1.236-7.234 3.383-9.451 1.965-2.029 5.523-4.626 8.3-5.387 1.986-.544 3.751-.497 5.548.568 1.928 1.143 2.563 3.393 3.923 5.063 1.643 2.019 3.376 2.956 5.842 3.245.652.076 1.166-.488.944-1.048a413.519 413.519 0 00-4.317-10.441c-.889-2.064-5.43-4.484-8.014-6.102-2.264-1.417-7.051.609-11.335 3.036-2.336 1.323-4.523 2.766-6.069 3.836-.153.106-.952.599-1.739 1.084l.046-.146c1.574-2.365 5.225-8.299 7.934-14.701 1.509-3.565 8.037-10.896 9.568-14.422 2.924-6.73-1.218-7.291-1.218-7.291l-5.44 7.903-11.149 13.572-.449.657c.156-.967.263-1.607.297-1.742 1.849-7.347 1.417-12.677 2.096-16.444C72.89 54.5 68.904 54.5 68.904 54.5l-4.09 10.685-3.242 12.31-4.339 9.39-.068-.072s-3.622-15.02-3.3-17.25c1.484-10.275-3.079-11.237-3.079-11.237s-2.009 4.926-2.146 9.183c-.256 7.974.33 17.926.33 19.179 0 1.923-4.718 17.166-6.312 21.011-.897 2.162-6.994 5.419-12.162 7.857-4.024 1.898-6.437 3.3-6.437 3.3" data-color="2"/>
        <path fill="#F4C0A6" d="M99.097 105.555a413.519 413.519 0 014.317-10.441c.889-2.064 5.43-4.484 8.014-6.102 2.264-1.417 7.051.609 11.335 3.036 2.336 1.323 4.523 2.766 6.069 3.836.153.106.952.599 1.739 1.084l-.046-.146c-1.574-2.365-5.225-8.299-7.934-14.701-1.509-3.565-8.037-10.896-9.568-14.422-2.924-6.73 1.218-7.291 1.218-7.291l5.44 7.903L130.83 81.88l.449.657c-.156-.967-.263-1.607-.297-1.742-1.849-7.347-1.417-12.677-2.096-16.444-1.776-9.852 2.211-9.852 2.211-9.852l4.089 10.685 3.242 12.31 4.339 9.39.068-.072s3.622-15.02 3.3-17.25c-1.484-10.275 3.079-11.237 3.079-11.237s2.009 4.926 2.146 9.183c.256 7.974-.33 17.926-.33 19.179 0 1.923 4.718 17.166 6.312 21.011 1.595 3.846 19.646 12.743 19.646 12.743l3.012.961-.008 24.096s-26.094-12.147-31.108-10.759c-15.503 4.294-19.954-5.461-30.054-5.461-7.525 0-13.575 6.405-16.17 9.67-.569.715-1.799.513-2.067-.335l-.368-1.163c0-5.886 4.447-10.577 9.475-13.839 3.362-2.181 6.741-3.756 10.533-4.961 3.253-1.034 6-2.445 6.805-6.089.983-4.45-1.236-7.234-3.383-9.451-1.965-2.029-5.523-4.626-8.3-5.387-1.986-.544-3.751-.497-5.548.568-1.928 1.143-2.563 3.393-3.923 5.063-1.643 2.019-3.376 2.956-5.842 3.245-.653.08-1.167-.485-.945-1.044z" data-color="1"/>
        <path fill="#629CEF" d="M166.884 140.841c-7.554-3.372-15.303-6.847-18-6.1-15.503 4.294-19.954-5.461-30.054-5.461-7.525 0-13.575 6.405-16.17 9.67-.569.715-1.799.513-2.067-.335l-.368-1.163c0-5.886 4.447-10.577 9.475-13.839 3.362-2.181 6.741-3.756 10.533-4.961 3.253-1.034 6-2.445 6.805-6.089.983-4.45-1.236-7.234-3.383-9.451-1.965-2.029-5.523-4.626-8.3-5.387-1.986-.544-3.751-.497-5.548.568-1.928 1.143-2.563 3.393-3.923 5.063-1.643 2.019-3.376 2.956-5.842 3.245-.652.076-1.166-.488-.944-1.048a413.519 413.519 0 014.317-10.441c.889-2.064 5.43-4.484 8.014-6.102 2.264-1.417 7.051.609 11.335 3.036 2.336 1.323 4.523 2.766 6.069 3.836.153.106.952.599 1.739 1.084l-.046-.146c-1.574-2.365-5.225-8.299-7.934-14.701-1.509-3.565-8.037-10.896-9.568-14.422-2.924-6.73 1.218-7.291 1.218-7.291l5.44 7.903 11.149 13.569.449.657c-.156-.967-.263-1.607-.297-1.742-1.849-7.347-1.417-12.677-2.096-16.444-1.776-9.852 2.211-9.852 2.211-9.852l4.089 10.685 3.242 12.31 4.339 9.39.068-.072s3.622-15.02 3.3-17.25c-1.484-10.275 3.079-11.237 3.079-11.237s2.009 4.926 2.146 9.183c.256 7.974-.33 17.926-.33 19.179 0 1.923 4.718 17.166 6.312 21.011.897 2.162 6.994 5.419 12.162 7.857 4.024 1.898 6.437 3.3 6.437 3.3" data-color="2"/>
    </g>
</svg>