<svg preserveAspectRatio="xMidYMid meet" data-bbox="13.917 10 172.168 180" xmlns="http://www.w3.org/2000/svg" width="200" height="200" viewBox="13.917 10 172.168 180" data-type="color" role="img" aria-label="South Pasadena Animal  Hospital">
    <g>
        <path fill="#201C40" d="M121.775 137.107H92.056v-15.6h-6.79V105.97h-7.005l-.809-21.104h-.815l-.809 21.104h-7.005v15.536h-6.79v28.758H32.318l-.095-138.396c0-1.896 2.501-2.582 3.468-.952l9.993 14.94h31.538l9.993-14.94c.968-1.631 3.469-.944 3.469.952v66.604c17.689 3.116 31.132 18.549 31.132 37.131l-.041 21.504z" data-color="1"/>
        <path d="M60.966 54.155l5.696-5.129H55.27l5.696 5.129z" fill="#FFFFFF" data-color="2"/>
        <path fill="#FFFFFF" d="M46.607 37.595a3.482 3.482 0 10-.001 6.965 3.482 3.482 0 00.001-6.965z" data-color="2"/>
        <path fill="#FFFFFF" d="M75.324 37.595a3.482 3.482 0 10-.001 6.965 3.482 3.482 0 00.001-6.965z" data-color="2"/>
        <path fill="#ECA0A0" d="M56.624 91.986a9.079 9.079 0 00-3.021-.523 9.118 9.118 0 00-9.118 9.118 9.118 9.118 0 009.118 9.118c1.061 0 2.074-.19 3.021-.523-3.549-1.248-6.097-4.619-6.097-8.595 0-3.976 2.548-7.347 6.097-8.595z" data-color="3"/>
        <path fill="#ECA0A0" d="M157.501 132.835h-10.059a6.052 6.052 0 100 12.104h10.059c9.086 0 16.478 7.392 16.478 16.478 0 9.086-7.392 16.477-16.478 16.477h-35.726v-40.789H92.057v-15.6h-6.79V105.97h-7.004l-.809-21.104h-.815l-.809 21.104h-7.005v15.536h-6.79v28.758H32.318v19.797h-2.695c-8.906 1.446-15.706 9.165-15.706 18.479V190h143.584c15.761 0 28.583-12.822 28.583-28.582-.001-15.761-12.823-28.583-28.583-28.583z" data-color="3"/>
        <g opacity=".25">
            <path d="M29.623 170.061c-8.906 1.446-15.706 9.165-15.706 18.479V190h18.401l-.011-19.939h-2.684z"/>
            <path d="M62.036 150.265V190h-21.71v-39.735h21.71z"/>
            <path d="M157.501 132.835h-10.059a6.052 6.052 0 100 12.104h10.059c9.086 0 16.478 7.392 16.478 16.478 0 9.086-7.392 16.477-16.478 16.477h-35.726v-40.789h-21.71V190h57.437c15.761 0 28.583-12.822 28.583-28.582-.002-15.761-12.824-28.583-28.584-28.583z"/>
            <path d="M85.266 105.97h-11.43v15.536h-2.651V190h20.871v-68.494h-6.79V105.97z"/>
        </g>
    </g>
</svg>