<svg preserveAspectRatio="xMidYMid meet" data-bbox="17.484 61.812 165.162 75.988" viewBox="17.484 61.812 165.162 75.988" height="200" width="200" xmlns="http://www.w3.org/2000/svg" data-type="color" role="img" aria-label="South Pasadena Animal  Hospital">
    <g>
        <path d="M38.1 78.7S20.9 86.9 17.9 96c0 0-4 8.8 12.8 9 0 0 14-2.2 16 5.1 0 0 .8 8.4 3.5 9.1 0 0 2.5 3.2 0 6.4 0 0-4.9 1.2-4.9 4.7 0 0 0 2.7 2 0 0 0 2.7-.5.5 2.2 0 0 2 1.5 2.2-2.7 0 0 1.2-2 1.3 1.2 0 0 1.9 3.2 3.1-.5 0 0 4-4.7 3.2-7.9 0 0-.7-3.5 5.7-1.7 0 0 5 6.2-2 7.9 0 0-3.5.5-3.7 3.9 0 0-.1 1.5 3-1.7 0 0 1.5 1.5 0 3.2 0 0 1.6 2 2.8-1 0 0 2.3-3.5 2.3-1v2.9s1.1.5 1.1-3.2v-2.7s-1.7-1.7 5.8-3.7c0 0 8.1-1.7 9.3-4.4 1.2-2.7 17.5-1.2 17.5-1.2v3.4s-7.3-.5-10 2.7l.6 1.5-6.5 1.5s-1.5 1.1-1 1.9c.2.3.6.5 1.3.6 3 .5 9.2-2 9.2-2s0 .7-.7 1.7c0 0-2.2 2.8.5 2 0 0 3.2-.9 3.2-2.9h5.5s10.2-1.2 11.2-5.8c0 0 0-3.8 6.5-4.1.3 0 .6-.3 1-.3 7.5 0 9.2-2.3 12.2-7.5 0 0 .7-2.3 6.5 1.7 0 0 17.1 9.3 29.3 6.6 0 0 10.4-1.2 9.9 7.6 0 0 1 5.2-23.8 3.7 0 0-32-1.2-44.4 5.1-.3.2-.7.3-1 .5 0 0 19.6-2.7 28.3-2.2 0 0 43.4 3.7 45.4-7.4 0 0 1.5-9.6-12.6-11.1 0 0-24.6 2.2-40.9-18.7 0 0-15.6-31.8-42.9-23.1 0 0-9.9 5.4-16.9 4.7 0 0-6.5.2-3.5-6.2 0 0 4.2-12.3-8.2-11.1 0 0-7.5 1-8.4 9.4 0 0-3.7 3.7-4.5-.5l-2.7-9s-3-3.1-4.5 3c0 0-2.2 6.9 1.5 11.8-.1.3 1.6 0-.9 1.3z" fill="#d96262" data-color="1"/>
    </g>
</svg>