<svg preserveAspectRatio="xMidYMid meet" data-bbox="42.55 11.088 115.67 180.002" xmlns="http://www.w3.org/2000/svg" width="200" height="200" viewBox="42.55 11.088 115.67 180.002" data-type="color" role="img" aria-label=" South Pasadena Animal  Hosp">
    <g>
        <path fill="#E0C99F" d="M158.22 111.705c0-5.819-4.717-10.536-10.536-10.536-1.821 0-3.534.462-5.029 1.276a25.81 25.81 0 00-12.06-2.976H89.319v-62.69c0-3.457-.916-6.695-2.503-9.504a19.414 19.414 0 00-3.733-4.703 18.483 18.483 0 012.441-3.968c2.846-3.561 6.451-5.624 8.933-5.348-.218-.588-.555-1.083-1.02-1.455-2.384-1.905-7.183.137-10.718 4.561a17.61 17.61 0 00-2.447 4.047 19.192 19.192 0 00-10.321-2.998 19.2 19.2 0 00-10.321 2.998 17.632 17.632 0 00-2.447-4.047c-3.536-4.424-8.335-6.466-10.718-4.561-.465.372-.802.867-1.02 1.455 2.483-.277 6.087 1.787 8.933 5.348a18.443 18.443 0 012.441 3.968 19.414 19.414 0 00-3.733 4.703 19.256 19.256 0 00-2.503 9.504v94.068h29.466a23.712 23.712 0 0115.822 6.05l1.553 1.391h12.039V124.94h-3.943a3.223 3.223 0 01-3.224-3.224h-.043v-5.628a2.378 2.378 0 014.756 0v5.628h2.455v-10.437a3.091 3.091 0 016.182 0v16.738h2.455v-5.627a2.378 2.378 0 014.756 0v5.627h-.043a3.223 3.223 0 01-3.224 3.224h-3.943v7.047h37.443a25.787 25.787 0 003.434-12.891c0-2.347-.317-4.619-.902-6.781a10.473 10.473 0 002.598-6.911z" data-color="1"/>
        <path fill="#CB5A52" d="M53.087 27.275a19.414 19.414 0 013.733-4.703 18.483 18.483 0 00-2.441-3.968c-2.846-3.561-6.451-5.624-8.933-5.348-.899 2.426.259 6.444 3.105 10.005 1.392 1.743 2.978 3.107 4.536 4.014z" data-color="2"/>
        <path fill="#CB5A52" d="M86.816 27.275c1.558-.907 3.145-2.272 4.536-4.013 2.846-3.561 4.004-7.579 3.105-10.005-2.483-.277-6.087 1.787-8.933 5.348a18.443 18.443 0 00-2.441 3.968 19.39 19.39 0 013.733 4.702z" data-color="2"/>
        <path d="M82.618 108.161c0 6.995-5.67 12.666-12.666 12.666-6.995 0-12.666-5.67-12.666-12.666 0-6.995 5.67-12.666 12.666-12.666 6.995 0 12.666 5.67 12.666 12.666z" fill="#CB5A52" data-color="2"/>
        <path fill="#CB5A52" d="M132.801 138.29v-3.014h2.309a1.92 1.92 0 001.921-1.921h.026v-3.353a1.416 1.416 0 10-2.834 0v3.353h-1.422v-6.741a1.82 1.82 0 10-3.642 0v11.676h-13.512v-7.047h3.943a3.223 3.223 0 003.224-3.224h.043v-5.627a2.378 2.378 0 00-4.756 0v5.627h-2.455v-16.738a3.091 3.091 0 00-6.182 0v10.437h-2.455v-5.628a2.378 2.378 0 00-4.756 0v5.628h.043a3.223 3.223 0 003.224 3.224h3.943v13.348H97.426l-1.553-1.391a23.712 23.712 0 00-15.822-6.05H50.585v48.393h.026c-4.655 1.341-8.061 5.629-8.061 10.715v1.133h17.024c6.16 0 11.153-4.993 11.153-11.153v-29.264a25.97 25.97 0 005.787.656h33.314v28.244c-4.68 1.733-8.02 6.227-8.02 11.51h11.448v.006h17.024c6.16 0 11.153-4.993 11.153-11.153v-30.983a26.043 26.043 0 0011.656-10.664h-20.288zm-12.338 41.235c.279-.106.563-.201.851-.285h.003c-.289.084-.574.179-.854.285z" data-color="2"/>
        <path opacity=".25" d="M109.844 151.322h11.463v27.912h.026c-4.655 1.341-8.061 5.629-8.061 10.715v1.133h-11.464c0-5.283 3.34-9.776 8.02-11.51v-28.244"/>
        <path fill="#FFFFFF" d="M89.496 107.539c-.439 0-.855.089-1.249.221a6.868 6.868 0 00-5.78-3.158 6.878 6.878 0 00-6.878 6.878h17.847a3.94 3.94 0 00-3.94-3.941z" data-color="3"/>
        <path fill="#FFFFFF" d="M60.041 112.615c-2.319 0-4.198 2.032-4.198 4.539h8.396c0-2.507-1.88-4.539-4.198-4.539z" data-color="3"/>
        <path fill="#FFFFFF" d="M68.752 34.407l-5.912 10.24c-2.628 4.551.657 10.24 5.912 10.24s8.54-5.689 5.912-10.24l-5.912-10.24z" data-color="3"/>
        <path fill="#1D1E1C" d="M57.922 34.407a3.143 3.143 0 100 6.286 3.143 3.143 0 000-6.286z" data-color="4"/>
        <path fill="#1D1E1C" d="M80.054 34.407a3.143 3.143 0 100 6.286 3.143 3.143 0 000-6.286z" data-color="4"/>
        <path d="M68.752 50.074l3.133-5.426h-6.266l3.133 5.426z" fill="#1D1E1C" data-color="4"/>
        <path opacity=".25" d="M132.801 135.275h2.309a1.92 1.92 0 001.921-1.921h.026v-3.353a1.416 1.416 0 10-2.834 0v3.353h-1.422v-6.741a1.82 1.82 0 10-3.642 0v11.676h3.642v-3.014z"/>
    </g>
</svg>