<svg preserveAspectRatio="xMidYMid meet" data-bbox="27.572 50.577 144.858 98.848" viewBox="27.572 50.577 144.858 98.848" height="200" width="200" xmlns="http://www.w3.org/2000/svg" data-type="color" role="img" aria-label="South Pasadena Animal  Hospital"><defs><style>svg [data-color="1"] {fill: #495B6D;}</style></defs>
    <g>
        <path d="M172.168 51.898a1.716 1.716 0 0 0-2.057-1.277L106.35 65.468c-13.987 2.894-20.447 5.855-21.6 9.903-.594 2.087.242 4.224 2.484 6.351.353.335.933.974.856 1.494-.083.567-.864 1.226-1.438 1.553l-34.984 8.7c-7.341 1.613-12.245 4.442-14.577 8.408-1.55 2.636-1.499 5.064-1.332 6.279l-3.31.979c-2.033.677-3.46 1.839-4.242 3.452-1.194 2.461-.357 4.954-.257 5.229.158.441.49.798.918.987.428.19.915.195 1.348.018 11.357-4.686 20.411-5.233 26.91-1.62 8.383 4.658 5.373 12.889 3.689 16.213-1.438 2.84-3.748 5.388-6.866 7.572-2.977 2.083-6.468 3.648-11.315 5.071l-.031.009a1.715 1.715 0 0 0 .481 3.359c.159 0 .321-.022.482-.069l33.14-9.713-.964-3.29-16.656 4.882c2.032-1.899 3.636-3.998 4.787-6.272 4.373-8.632 2.426-16.586-5.083-20.759-7.018-3.899-16.341-3.696-27.732.599a2.79 2.79 0 0 1 .232-.719c.365-.751 1.119-1.321 2.186-1.678l13.523-4a1.715 1.715 0 0 0-.972-3.287l-6.926 2.049c-.032-.821.101-2.159.995-3.637 1.831-3.024 6.086-5.345 12.353-6.723l35.235-8.761a1.72 1.72 0 0 0 .341-.125c.311-.153 3.054-1.567 3.454-4.183.165-1.081-.028-2.741-1.886-4.503-.854-.811-1.816-1.976-1.546-2.925.402-1.411 3.405-4.26 19.039-7.495l61.921-14.417c.027 1.453-.214 3.616-1.52 5.639-1.64 2.538-4.581 4.235-8.742 5.045a1.796 1.796 0 0 0-.122.029l-36.092 9.808a1.714 1.714 0 0 0 .9 3.308l34.119-9.272c-.316 8.317-8.476 9.77-8.837 9.829a2.09 2.09 0 0 0-.194.042l-32.187 8.951a1.714 1.714 0 0 0 .918 3.303l27.717-7.708c-.963 7.283-8.461 8.97-8.806 9.042-.04.008-.08.018-.119.029l-32.378 9.047a1.714 1.714 0 1 0 .923 3.3l32.321-9.03c4.031-.845 11.269-4.693 11.582-13.369l.856-.238c4.245-.706 11.847-4.53 11.634-14.076 4.293-1.119 7.453-3.189 9.387-6.182 3.012-4.663 1.852-9.783 1.801-9.998z" fill="#1451a4" data-color="1"/>
    </g>
</svg>