<svg preserveAspectRatio="xMidYMid meet" data-bbox="14.28 10 171.44 180" xmlns="http://www.w3.org/2000/svg" width="200" height="200" viewBox="14.28 10 171.44 180" data-type="color" role="img" aria-label="South Pasadena Animal  Hospital">
    <g>
        <path fill="#423C56" d="M185.72 47.152C185.72 26.633 171.49 10 153.937 10c-16.36 0-29.828 14.452-31.583 33.029L50.82 58.256C25.1 63.284 9.034 89.063 15.849 114.368l2.252 8.361h136.257V84.292c17.358-.264 31.362-16.786 31.362-37.14z" data-color="1"/>
        <path fill="#FFFFFF" d="M166.843 38.852h-25.811a7.623 7.623 0 000 15.246h1.286a12.127 12.127 0 00-.527 3.544c0 6.708 5.438 12.146 12.146 12.146 6.708 0 12.146-5.438 12.146-12.146 0-1.233-.185-2.422-.527-3.544h1.286a7.623 7.623 0 00.001-15.246z" data-color="2"/>
        <path fill="#1D1E1C" d="M152.967 55.699a2.455 2.455 0 10-4.91 0h4.91z" data-color="3"/>
        <path fill="#1D1E1C" d="M159.819 55.699a2.455 2.455 0 10-4.91 0h4.91z" data-color="3"/>
        <path d="M143.428 46.476a2.982 2.982 0 11-5.964 0 2.982 2.982 0 015.964 0z" fill="#1D1E1C" data-color="3"/>
        <path d="M170.411 46.476a2.982 2.982 0 11-5.964 0 2.982 2.982 0 015.964 0z" fill="#1D1E1C" data-color="3"/>
        <path fill="#17AD89" d="M136.077 122.729v-7.462l2.222-6.988a4.518 4.518 0 00-.608-3.967l-.1-.142a4.52 4.52 0 01-.033-5.147l.694-1.016h-.078a4.654 4.654 0 10-9.308 0h-.521a4.654 4.654 0 00-3.282 7.953h-.648a4.654 4.654 0 000 9.308h6.548v7.462H88.9v-8.871h.799l5.782-10.381c1.948-3.073.508-7.158-2.936-8.33-3.841-1.307-5.074-6.129-2.332-9.12l2.386-2.602a8.205 8.205 0 10-16.41 0h-.919a8.205 8.205 0 00-8.205 8.205c0 2.274.926 4.331 2.42 5.817h-1.142a8.205 8.205 0 100 16.41h11.546v8.871H42.694v-5.882l1.529-4.809a3.112 3.112 0 00-.419-2.73l-.069-.098a3.108 3.108 0 01-.022-3.542l.478-.699h-.053a3.202 3.202 0 10-6.404 0h-.359a3.202 3.202 0 00-2.258 5.472h-.447a3.202 3.202 0 100 6.404h4.506v5.882H18.101l6.402 23.77V190h63.123c0-6.001-4.864-10.865-10.865-10.865h-3.145l12.665-42.384 33.743-5.325 8.643 47.709h-4.423c-6.001 0-10.865 4.864-10.865 10.865h40.979v-67.27h-18.281z" data-color="4"/>
        <path fill="#17AD89" d="M92.544 95.148c-3.841-1.307-5.074-6.129-2.332-9.12l2.386-2.602h.919a8.205 8.205 0 018.205 8.205 8.175 8.175 0 01-2.42 5.817h1.142a8.205 8.205 0 110 16.41H89.698l5.782-10.381c1.948-3.072.508-7.157-2.936-8.329z" data-color="4"/>
        <path fill="#17AD89" d="M137.691 104.312l-.1-.142a4.52 4.52 0 01-.033-5.147l.694-1.016h.443a4.654 4.654 0 013.282 7.953h.648a4.654 4.654 0 010 9.308h-6.548l2.222-6.988a4.52 4.52 0 00-.608-3.968z" data-color="4"/>
        <path fill="#17AD89" d="M43.804 109.309l-.069-.098a3.108 3.108 0 01-.022-3.542l.478-.699h.305a3.202 3.202 0 012.258 5.472h.446a3.202 3.202 0 110 6.404h-4.506l1.529-4.809a3.108 3.108 0 00-.419-2.728z" data-color="4"/>
        <path opacity=".25" d="M92.544 95.148c-3.841-1.307-5.074-6.129-2.332-9.12l2.386-2.602h.919a8.205 8.205 0 018.205 8.205 8.175 8.175 0 01-2.42 5.817h1.142a8.205 8.205 0 110 16.41H89.698l5.782-10.381c1.948-3.072.508-7.157-2.936-8.329z"/>
        <path opacity=".25" d="M137.691 104.312l-.1-.142a4.52 4.52 0 01-.033-5.147l.694-1.016h.443a4.654 4.654 0 013.282 7.953h.648a4.654 4.654 0 010 9.308h-6.548l2.222-6.988a4.52 4.52 0 00-.608-3.968z"/>
        <path opacity=".25" d="M43.804 109.309l-.069-.098a3.108 3.108 0 01-.022-3.542l.478-.699h.305a3.202 3.202 0 012.258 5.472h.446a3.202 3.202 0 110 6.404h-4.506l1.529-4.809a3.108 3.108 0 00-.419-2.728z"/>
        <path fill="#FFFFFF" d="M45.952 81.067a8.255 8.255 0 013.127-6.473 8.237 8.237 0 00-5.15-1.804 8.276 8.276 0 000 16.552 8.24 8.24 0 005.15-1.804 8.247 8.247 0 01-3.127-6.471z" data-color="2"/>
        <path opacity=".25" d="M51.472 179.135h3.145c6.001 0 10.865 4.864 10.865 10.865H48.225h39.401c0-6.001-4.864-10.865-10.865-10.865h-3.145l12.665-42.384-23.24 3.667-11.569 38.717z"/>
    </g>
</svg>