<svg preserveAspectRatio="xMidYMid meet" data-bbox="10.5 57 178.999 86.001" viewBox="10.5 57 178.999 86.001" height="200" width="200" xmlns="http://www.w3.org/2000/svg" data-type="color" role="img" aria-label="South Pasadena Animal  Hospital">
    <g>
        <path d="M177.895 141.067h-42.709a.95.95 0 0 0 .073-.362v-6.381a.965.965 0 0 0 .722.212l13.929-1.68a.967.967 0 0 0 .846-1.074.96.96 0 0 0-1.079-.844l-13.929 1.68a.933.933 0 0 0-.489.228v-.356c0-2.125-.22-4.199-.615-6.211.128.061.257.128.402.128a.964.964 0 0 0 .306-.049l35.945-11.914a.965.965 0 0 0 .614-1.221.971.971 0 0 0-1.225-.613l-35.945 11.914a.94.94 0 0 0-.437.324 31.977 31.977 0 0 0-1.415-4.424c.038.004.072.027.11.027a.964.964 0 0 0 .527-.157l8.02-5.199a.964.964 0 0 0 .285-1.336.971.971 0 0 0-1.341-.283l-8.02 5.199a.96.96 0 0 0-.253.247 32.154 32.154 0 0 0-2.88-4.972l18.964-17.058a.964.964 0 0 0 .07-1.365.971.971 0 0 0-1.368-.07l-18.831 16.939a32.428 32.428 0 0 0-3.254-3.478c.044-.042.099-.066.136-.118l18.631-26.609a.968.968 0 1 0-1.589-1.106l-18.591 26.551c-1.368-1.129-2.846-2.122-4.389-3.017l12.108-27.159a.966.966 0 0 0-.492-1.276.974.974 0 0 0-1.279.491l-12.047 27.022a32.07 32.07 0 0 0-5.182-2.083c.032-.064.096-.102.114-.174l8.236-32.854a.965.965 0 0 0-.705-1.172.966.966 0 0 0-1.174.704l-8.236 32.854c-.016.063-.006.124-.009.186a32.3 32.3 0 0 0-6.561-.87v-3.414a.967.967 0 0 0-.969-.966.967.967 0 0 0-.969.966v3.414a32.455 32.455 0 0 0-5.034.53L88.718 68.12a.971.971 0 0 0-1.174-.704.965.965 0 0 0-.705 1.172l8.189 32.665a32.16 32.16 0 0 0-5.299 1.822L77.96 76.677a.973.973 0 0 0-1.279-.491.966.966 0 0 0-.492 1.276l11.793 26.454a32.327 32.327 0 0 0-4.616 2.948L65.317 81.087a.972.972 0 0 0-1.349-.24.965.965 0 0 0-.24 1.346l18.123 25.883a32.497 32.497 0 0 0-3.449 3.443c-.045-.069-.084-.142-.148-.199L45.157 81.552a.967.967 0 1 0-1.298 1.435l33.096 29.768a.949.949 0 0 0 .305.186 32.182 32.182 0 0 0-3.232 5.143l-7.104-4.606a.97.97 0 0 0-1.34.283.963.963 0 0 0 .284 1.336l7.311 4.741c-.603 1.403-1.077 2.869-1.478 4.366l-34.974-11.593a.966.966 0 1 0-.611 1.834l35.108 11.637a32.14 32.14 0 0 0-.645 6.407l-12.844-1.549c-.53-.079-1.014.313-1.079.844a.968.968 0 0 0 .846 1.074l13.077 1.577v6.271c0 .129.027.25.073.362H24.793a.967.967 0 1 0 0 1.932h153.102a.967.967 0 1 0 0-1.933zm-105.379-.362v-8.213c0-9.432 4.343-17.868 11.137-23.433.017-.01.038-.006.054-.017.032-.023.05-.056.078-.082 5.229-4.236 11.886-6.786 19.132-6.786 9.749 0 18.418 4.618 23.985 11.756-.01.244.07.492.247.687.129.143.295.22.469.267 3.573 4.97 5.701 11.039 5.701 17.607v8.213c0 .129.027.25.073.362H72.443a.938.938 0 0 0 .073-.361z" fill="#858cf7" data-color="1"/>
        <path d="M54.395 132.476c.484 0 .902-.36.961-.851a.967.967 0 0 0-.846-1.074l-31.651-3.818a.958.958 0 0 0-1.079.844.967.967 0 0 0 .846 1.074l31.651 3.818c.04.006.079.007.118.007z" fill="#858cf7" data-color="1"/>
        <path d="M18.998 126.267l-7.412-.895a.958.958 0 0 0-1.079.842.968.968 0 0 0 .846 1.076l7.412.895a.967.967 0 0 0 .233-1.918z" fill="#858cf7" data-color="1"/>
        <path d="M63.248 113.398a.969.969 0 0 0 1.34-.283.963.963 0 0 0-.284-1.336l-12.335-7.998c-.448-.291-1.048-.164-1.34.283s-.165 1.046.284 1.336l12.335 7.998z" fill="#858cf7" data-color="1"/>
        <path d="M41.312 80.695a.97.97 0 0 0 1.368-.07.965.965 0 0 0-.07-1.365l-4.328-3.893a.973.973 0 0 0-1.368.07.965.965 0 0 0 .07 1.365l4.328 3.893z" fill="#858cf7" data-color="1"/>
        <path d="M74.385 73.416a.97.97 0 0 0 1.28.491.966.966 0 0 0 .492-1.276l-2.512-5.635a.97.97 0 0 0-1.279-.491.966.966 0 0 0-.492 1.276l2.511 5.635z" fill="#858cf7" data-color="1"/>
        <path d="M102.919 93.719a.967.967 0 0 0 .969-.966V57.966a.967.967 0 0 0-.969-.966.967.967 0 0 0-.969.966v34.787c0 .534.433.966.969.966z" fill="#858cf7" data-color="1"/>
        <path d="M188.414 126.267l-35.512 4.284a.967.967 0 1 0 .232 1.917l35.512-4.284a.967.967 0 0 0 .846-1.074.954.954 0 0 0-1.078-.843z" fill="#858cf7" data-color="1"/>
        <path d="M155.444 103.78l-12.336 7.998a.967.967 0 1 0 1.056 1.619L156.5 105.4a.963.963 0 0 0 .284-1.336.97.97 0 0 0-1.34-.284z" fill="#858cf7" data-color="1"/>
        <path d="M151.459 93.719a.97.97 0 0 0 .649-.249l9.506-8.551c.397-.357.429-.968.07-1.365s-.972-.425-1.368-.07l-9.506 8.551a.964.964 0 0 0 .649 1.684z" fill="#858cf7" data-color="1"/>
        <path d="M131.748 73.906a.969.969 0 0 0 1.28-.491l2.512-5.635a.966.966 0 0 0-.492-1.276.971.971 0 0 0-1.279.491l-2.512 5.635a.964.964 0 0 0 .491 1.276z" fill="#858cf7" data-color="1"/>
    </g>
</svg>