<svg preserveAspectRatio="xMidYMid meet" data-bbox="22.492 46 154.972 108" viewBox="22.492 46 154.972 108" height="200" width="200" xmlns="http://www.w3.org/2000/svg" data-type="color" role="img" aria-label="South Pasadena Animal  Hospital"><defs><style>svg [data-color="1"] {fill: #A8745A;}</style></defs>
    <g>
        <path d="M33.4 109.6c-1.3 0-2.6-.8-3-2.2-3.4-10.2-1.5-37.3 26.4-51.2 8.5-4.2 16.7-6.4 24.4-6.4 20.9 0 32.9 15.1 38.6 22.4 1 1.3 1.2 3.5 0 4.6-5.1 5.1-11.9 10-20.9 14.7-15.9 8.6-32.6 11.5-46 13.9-7.2 1.2-13.5 2.3-18.7 4-.1.1-.5.2-.8.2z" fill="#2b3511" data-color="1"/>
        <path d="M172.2 57.8c-5.6-7.2-13.4-11.8-20.5-11.8-4.1 0-10 1.5-14.7 8.6-2.4 3.7-3.7 7.5-5 11.2-3.3 9.5-6.7 19.5-30.1 32.1-15 8.1-30.3 10.8-44 13.1-16.3 2.8-30.3 5.3-35.2 17-.4 1.1-.2 2.3.4 3.2.7.9 1.8 1.4 3 1.2 4.3-.5 9.9.2 15.7 1.4-.8.9-1.6 1.8-2.5 2.7-2.5 2.5-5 5-4.3 8.3.7 3 3.9 4.5 6.2 5.4 2.5.9 5.4 1.4 8.3 1.4 8 0 14.3-3.7 17.1-10 11 1.9 22.5 2.1 32.6 2.1h10.6c.4.3 1.2 1.1 1.7 1.6 3.3 3.3 8.7 8.7 17.6 8.7.8 0 1.7-.1 2.7-.2 4.4-.7 8.7-1.7 10.2-5.1 1.5-3.4-.8-6.6-3.4-10.3-3.1-4.4-7-9.9-6.4-17.1 1.2-2.6 2.4-5.4 3.5-8.1 3.1-7.7 6.3-15.6 13.6-22.7 2.8 2.2 6.6 3.5 10.5 3.5 2.9 0 5.7-.7 8.4-2 4-1.9 7.2-6.3 8.5-11.9 1.9-7.8.2-16.2-4.5-22.3zm-18 14.8c-1.8 0-3.2-1.5-3.2-3.2 0-1.8 1.5-3.2 3.2-3.2 1.8 0 3.2 1.5 3.2 3.2 0 1.8-1.4 3.2-3.2 3.2z" fill="#2b3511" data-color="1"/>
    </g>
</svg>