<svg preserveAspectRatio="xMidYMid meet" data-bbox="22 20 155.999 160" xmlns="http://www.w3.org/2000/svg" width="200" height="200" viewBox="22 20 155.999 160" data-type="color" role="img" aria-label="South Pasadena Animal  Hospital"><defs><style>svg [data-color="1"] {fill: #718685;}</style></defs>
    <g>
        <path fill="#5C5A58" d="M25.014 71.709a2.231 2.231 0 01-1.792-.899 2.257 2.257 0 01.447-3.148c1.341-1.01 2.249-3.139 3.399-5.834 3.074-7.203 7.719-18.088 28.184-23.131a2.236 2.236 0 012.707 1.648 2.248 2.248 0 01-1.64 2.719c-18.298 4.509-22.25 13.773-25.137 20.537-1.358 3.18-2.53 5.927-4.826 7.658-.404.304-.874.45-1.342.45" data-color="1"/>
        <path fill="#5C5A58" d="M54.751 76.905c-8.222 0-14.909-6.72-14.909-14.98 0-8.258 6.687-14.978 14.909-14.978 8.221 0 14.909 6.72 14.909 14.978 0 8.26-6.688 14.98-14.909 14.98m0-25.461c-5.753 0-10.434 4.702-10.434 10.481 0 5.781 4.681 10.483 10.434 10.483 5.753 0 10.434-4.702 10.434-10.483 0-5.779-4.681-10.481-10.434-10.481" data-color="1"/>
        <path fill="#5C5A58" d="M86.557 54.561a2.23 2.23 0 01-1.474-.556l-4.136-3.637a2.255 2.255 0 01-.21-3.173 2.23 2.23 0 013.158-.211l4.137 3.637a2.256 2.256 0 01.211 3.172 2.232 2.232 0 01-1.686.768" data-color="1"/>
        <path fill="#5C5A58" d="M121.469 101.459a2.238 2.238 0 01-2.118-1.525c-1.03-3.047-5.288-11.096-7.188-14.378-6.748-11.651-7.062-20.386-.885-24.596 7.671-5.23 16.784 2.88 21.679 7.235.293.262.572.51.835.742 4.943 4.352 10.033 10.72 13.285 16.622a2.251 2.251 0 01-.874 3.055 2.23 2.23 0 01-3.042-.878c-3.018-5.476-7.738-11.384-12.318-15.417-.269-.236-.554-.49-.853-.757-3.987-3.547-11.405-10.148-16.2-6.88-5.525 3.765-.272 14.271 2.242 18.613 1.713 2.961 6.321 11.535 7.556 15.192a2.25 2.25 0 01-2.119 2.972" data-color="1"/>
        <path fill="#5C5A58" d="M146.769 94.79l-.062-.001a2.24 2.24 0 01-2.077-1.582 2.962 2.962 0 01-.159-.61 2.248 2.248 0 011.865-2.569 2.238 2.238 0 012.223.996c.27.362.466.87.446 1.578a2.243 2.243 0 01-2.236 2.188" data-color="1"/>
        <path fill="#5C5A58" d="M139.679 100.775a9.212 9.212 0 01-2.077-.234c-2.101-.487-3.826-1.7-4.86-3.414a2.256 2.256 0 01.757-3.088 2.234 2.234 0 013.074.76c.513.854 1.389 1.21 2.034 1.36 1.274.294 2.747.036 3.843-.676a2.23 2.23 0 013.094.668 2.255 2.255 0 01-.665 3.109c-1.524.99-3.37 1.515-5.2 1.515" data-color="1"/>
        <path fill="#5C5A58" d="M100.738 100.898c-2.15 0-4.271-.117-6.255-.392l-2.217-.306.611-4.455 2.216.306c9.696 1.34 21.817-1.436 23.407-2.17l1.726-1.254 2.622 3.644-1.813 1.317c-1.687 1.226-11.24 3.31-20.297 3.31" data-color="1"/>
        <path fill="#5C5A58" d="M140.127 115.079c-2.634 0-4.627-1.706-6.178-3.033-.693-.594-1.348-1.154-2.021-1.578-2.476-1.562-5.613-2.041-9.325-1.423-1.484.247-2.956.925-4.514 1.642-2.017.93-4.103 1.891-6.522 2.079-2.372.189-4.253-.747-5.157-2.552-1.044-2.088-.48-5.038 1.371-7.175 4.732-5.466 10.106-5.769 14.262-5.42a2.247 2.247 0 012.044 2.428 2.238 2.238 0 01-2.416 2.053c-4.732-.395-7.778.732-10.513 3.89-.829.957-.878 2.018-.745 2.212.039.027.283.12.81.08 1.623-.126 3.263-.882 5-1.682 1.758-.809 3.575-1.647 5.649-1.992 4.823-.8 9.008-.111 12.437 2.051.947.599 1.757 1.292 2.543 1.963 1.694 1.45 2.547 2.078 3.549 1.933.187-.847-.27-2.895-1.242-4.043a2.257 2.257 0 01.256-3.17 2.228 2.228 0 013.154.258c1.881 2.223 3.755 7.636.792 10.506a2.234 2.234 0 01-.741.477c-.889.349-1.72.496-2.493.496" data-color="1"/>
        <path fill="#5C5A58" d="M127.739 98.236a2.24 2.24 0 01-2.195-1.827l-2.24-11.773a2.252 2.252 0 011.325-2.493 2.232 2.232 0 012.704.778c.02.03 2.112 3.013 4.381 5.915a2.256 2.256 0 01-.376 3.157 2.228 2.228 0 01-2.002.392l.604 3.18a2.247 2.247 0 01-2.201 2.671" data-color="1"/>
        <path fill="#5C5A58" d="M103.061 144.533c-.843 0-1.647-.48-2.024-1.301-.483-1.047-.192-1.942.288-2.51a2.23 2.23 0 011.228-.82 2.239 2.239 0 012.724 1.619c.254.995-.072 1.774-.551 2.268a2.228 2.228 0 01-1.665.744" data-color="1"/>
        <path fill="#5C5A58" d="M118.925 180c-3.854 0-7.673-.449-11.215-1.386-21.548-5.696-28.009-21.491-28.43-29.926-.459-9.221 2.312-16.93 8.234-22.915 4.628-4.675 12.58-7.314 20.253-6.719 6.638.513 12.085 3.269 15.336 7.758 3.542 4.892 4.895 10.584 3.81 16.031-1.12 5.626-4.661 10.512-9.969 13.759-5.959 3.644-13.637 3.036-19.107-1.515-4.326-3.596-6.512-9.348-5.438-14.311.928-4.291 4.447-9.24 9.98-9.971 5.074-.668 11.337.948 13.1 6.086.794 2.31.55 4.895-.651 6.916-1.103 1.856-2.879 3.07-4.998 3.419-1.228.2-2.401.222-3.489.067a2.247 2.247 0 01-1.9-2.543 2.241 2.241 0 012.53-1.909c.64.091 1.359.072 2.14-.055 1.016-.166 1.581-.791 1.875-1.285.532-.897.63-2.072.262-3.145-1.009-2.939-5.508-3.46-8.285-3.092-3.238.427-5.565 3.577-6.19 6.466-.717 3.312.895 7.379 3.918 9.893 4.001 3.327 9.596 3.786 13.925 1.137 4.228-2.585 7.037-6.421 7.909-10.8.848-4.26-.204-8.582-3.041-12.501-2.468-3.407-6.75-5.511-12.06-5.921-6.425-.496-12.994 1.625-16.735 5.406-5.068 5.12-7.337 11.505-6.938 19.519.04.793 1.242 19.496 25.099 25.803 10.836 2.865 24.481.72 32.441-5.101 21.435-15.677 26.344-45.511 26.428-55.684.121-15.083-3.557-28.221-5.325-34.536l-.194-.693c-2.296-8.239-7.92-16.236-17.192-24.449-7.637-6.763-16.193-10.058-29.536-11.374-5.747-.568-10.302.926-15.574 2.654l-1.013.331c-3.764 1.228-8.918 2.908-10.786 6.091a2.23 2.23 0 01-3.065.795 2.254 2.254 0 01-.791-3.078c2.73-4.652 8.816-6.636 13.26-8.085l1.006-.329c5.513-1.807 10.717-3.514 17.4-2.855 10 .986 21.629 3.24 32.058 12.477 9.941 8.804 16.007 17.507 18.543 26.609l.193.689c1.824 6.513 5.618 20.068 5.492 35.79-.089 10.803-5.339 42.512-28.27 59.283-6.319 4.621-15.763 7.199-25 7.199" data-color="1"/>
        <path fill="#5C5A58" d="M73.109 103.148c-.366 0-.738-.091-1.082-.282a2.254 2.254 0 01-.873-3.057c1.697-3.079 3.348-6.31 4.942-9.435 1.45-2.839 2.949-5.775 4.491-8.611.148-.274.314-.562.497-.862a2.229 2.229 0 013.075-.75 2.253 2.253 0 01.746 3.089c-.143.237-.275.465-.391.679-1.513 2.784-2.998 5.693-4.434 8.506-1.613 3.158-3.279 6.421-5.011 9.564a2.237 2.237 0 01-1.96 1.159" data-color="1"/>
        <path fill="#5C5A58" d="M75.092 114.893c-1.309 0-2.682-.388-4.105-1.302-1.677-1.076-3.166-2.584-4.48-3.914-.693-.701-1.348-1.364-1.959-1.897a55.2 55.2 0 00-1.328-1.105c-1.766-1.441-3.767-3.074-4.975-5.168a2.255 2.255 0 01.814-3.073 2.234 2.234 0 013.059.818c.795 1.379 2.457 2.736 3.923 3.932.504.41.991.809 1.438 1.198.739.643 1.451 1.365 2.205 2.127 1.207 1.222 2.454 2.486 3.712 3.292 2.81 1.803 5.802-1.294 9.72-6.876.359-.509.691-.982.996-1.397.556-.76 1.123-1.527 1.694-2.299 3.32-4.486 6.753-9.126 9.239-13.92.901-1.738 1.059-4.232.381-6.065a2.252 2.252 0 011.32-2.891 2.234 2.234 0 012.876 1.326c1.119 3.029.88 6.84-.608 9.708-2.651 5.111-6.192 9.897-9.615 14.525-.568.767-1.131 1.528-1.684 2.282-.288.393-.602.842-.94 1.323-2.451 3.491-6.581 9.376-11.683 9.376" data-color="1"/>
        <path fill="#5C5A58" d="M50.779 109.827c-2.573 0-4.812-1.114-6.229-3.13-1.627-2.312-1.853-5.472-.589-8.244 1.995-4.377 7.379-8.855 12.91-8.728 5.787.118 11.784 4.853 14.094 6.883a2.255 2.255 0 01.21 3.173 2.23 2.23 0 01-3.157.212c-3.121-2.744-7.712-5.7-11.237-5.771l-.111-.001c-3.458 0-7.313 3.192-8.639 6.104-.603 1.321-.536 2.769.174 3.776.63.897 1.694 1.326 2.998 1.209 1.307-.117 1.859-.839 2.991-2.723.869-1.448 1.951-3.247 3.98-4.233a2.233 2.233 0 012.988 1.047 2.254 2.254 0 01-1.041 3.003c-.831.403-1.417 1.378-2.095 2.507-1.154 1.92-2.733 4.548-6.426 4.879-.277.025-.55.037-.821.037" data-color="1"/>
        <path fill="#5C5A58" d="M38.752 107.099c-2.572.001-4.811-1.113-6.228-3.129-1.626-2.312-1.853-5.473-.588-8.245.732-1.61 1.894-3.194 3.36-4.58a2.23 2.23 0 013.164.097 2.254 2.254 0 01-.097 3.177c-1.032.977-1.87 2.106-2.357 3.177-.604 1.322-.536 2.77.173 3.779.632.897 1.695 1.325 2.997 1.207 1.309-.117 1.861-.839 2.993-2.722.869-1.448 1.951-3.248 3.979-4.233a2.237 2.237 0 012.99 1.046 2.254 2.254 0 01-1.042 3.003c-.831.404-1.417 1.379-2.096 2.508-1.153 1.919-2.733 4.548-6.426 4.878a9.14 9.14 0 01-.822.037" data-color="1"/>
        <path fill="#5C5A58" d="M46.738 97.951c-.108 0-.218-.008-.327-.024-9.438-1.388-16.662-6.759-20.891-15.535-3.133-6.501-3.502-12.551-3.516-12.805a2.249 2.249 0 011.323-2.18 2.228 2.228 0 012.498.468 760.419 760.419 0 003.568 3.588c.896.853.937 2.276.088 3.177a2.232 2.232 0 01-1.901.689c1.849 6.529 6.726 16.273 19.478 18.148a2.246 2.246 0 011.891 2.55 2.241 2.241 0 01-2.211 1.924" data-color="1"/>
        <path fill="#5C5A58" d="M77.248 56.64c-.486 0-.976-.158-1.387-.484a2.257 2.257 0 01-.368-3.159c3.984-5.064 6.067-8.404 7.88-14.81 2.005-7.079 1.906-11.096 1.547-12.901-3.763 3.104-15.682 12.027-30.476 18.192a2.233 2.233 0 01-2.925-1.215 2.254 2.254 0 011.21-2.938c17.4-7.251 29.812-17.895 30.175-18.217 1.142-1.174 2.728-1.44 4.054-.677 3.233 1.86 3.509 9.136.721 18.987-2.01 7.095-4.399 10.931-8.674 16.368a2.233 2.233 0 01-1.757.854" data-color="1"/>
        <path fill="#5C5A58" d="M91.213 47.546a2.243 2.243 0 01-2.237-2.248c0-.765.14-7.514 5.02-9.148 3.927-1.316 7.534 1.553 9.049 3.457a2.254 2.254 0 01-.35 3.159 2.228 2.228 0 01-3.144-.351c-.016-.018-2.218-2.644-4.138-1.999-1.497.501-1.962 3.753-1.962 4.882a2.243 2.243 0 01-2.238 2.248" data-color="1"/>
        <path fill="#5C5A58" d="M102.445 43.357a2.246 2.246 0 01-2.186-2.738c.167-.745 1.776-7.299 6.894-7.821 4.115-.413 7.013 3.175 8.075 5.365a2.253 2.253 0 01-1.029 3.006 2.232 2.232 0 01-2.993-1.035c-.01-.02-1.581-3.072-3.602-2.861-1.517.154-2.68 3.044-2.978 4.338a2.247 2.247 0 01-2.181 1.746" data-color="1"/>
        <path fill="#5C5A58" d="M125.078 42.315a2.24 2.24 0 01-2.194-1.822c-.005-.023-.74-3.375-2.74-3.703-1.548-.258-3.472 2.406-3.995 3.405a2.232 2.232 0 01-3.021.945 2.254 2.254 0 01-.942-3.036c.355-.677 3.604-6.588 8.68-5.753 4.083.671 5.951 4.897 6.411 7.288a2.246 2.246 0 01-2.199 2.676" data-color="1"/>
        <path fill="#5C5A58" d="M136.565 45.643l-.118-.003a2.243 2.243 0 01-2.118-2.362c.001-.024.091-3.455-1.772-4.257-1.45-.622-3.947 1.496-4.692 2.339a2.23 2.23 0 01-3.159.187 2.257 2.257 0 01-.187-3.175c.505-.571 5.074-5.523 9.801-3.484 3.804 1.637 4.604 6.191 4.478 8.624a2.242 2.242 0 01-2.233 2.131" data-color="1"/>
        <path fill="#5C5A58" d="M146.499 52.22c-.229 0-.463-.035-.693-.11a2.252 2.252 0 01-1.436-2.835c.008-.023.983-3.313-.609-4.574-1.24-.98-4.199.416-5.138 1.036a2.233 2.233 0 01-3.1-.644 2.256 2.256 0 01.641-3.114c.636-.419 6.327-4.008 10.367-.81 3.25 2.575 2.846 7.182 2.096 9.498a2.243 2.243 0 01-2.128 1.553" data-color="1"/>
        <path fill="#5C5A58" d="M155.021 60.103c-.277 0-.561-.052-.835-.163a2.254 2.254 0 01-1.24-2.926c.009-.021 1.203-3.239-.298-4.604-1.171-1.064-4.218.128-5.196.681a2.23 2.23 0 01-3.048-.853 2.252 2.252 0 01.848-3.063c.664-.376 6.583-3.569 10.399-.099 3.067 2.789 2.352 7.358 1.447 9.618a2.237 2.237 0 01-2.077 1.409" data-color="1"/>
        <path fill="#5C5A58" d="M162.821 70.279a2.224 2.224 0 01-1.453-.54 2.255 2.255 0 01-.247-3.17c.015-.019 2.169-2.683 1.179-4.459-.746-1.338-3.847-1.259-5.148-1.019a2.241 2.241 0 01-2.609-1.794 2.245 2.245 0 011.776-2.623c.746-.144 7.371-1.272 9.886 3.239 2.021 3.627-.107 7.727-1.682 9.579a2.23 2.23 0 01-1.702.787" data-color="1"/>
        <path fill="#5C5A58" d="M166.707 81.579a2.24 2.24 0 01-2.199-1.847 2.248 2.248 0 011.801-2.615v.001c-.005 0 .954-.224 1.4-.97.436-.732.264-1.824.041-2.611-.431-1.532-3.377-2.271-4.736-2.39a2.248 2.248 0 01-2.04-2.427 2.236 2.236 0 012.405-2.055c.742.06 7.291.726 8.679 5.645.684 2.432.495 4.532-.566 6.241-1.489 2.401-4.091 2.937-4.382 2.991-.135.024-.27.037-.403.037" data-color="1"/>
        <path fill="#5C5A58" d="M168.686 93.047a2.234 2.234 0 01-1.93-1.107 2.256 2.256 0 01.791-3.08c.021-.011 2.919-1.83 2.557-3.833-.272-1.508-3.231-2.446-4.539-2.641a2.25 2.25 0 01-1.888-2.55 2.239 2.239 0 012.528-1.901c.752.108 7.382 1.203 8.303 6.288.74 4.091-2.598 7.275-4.687 8.512a2.226 2.226 0 01-1.135.312" data-color="1"/>
        <path fill="#5C5A58" d="M171.099 103.485a2.235 2.235 0 01-1.924-1.098 2.255 2.255 0 01.777-3.083c.014-.008 2.492-1.612 2.188-3.244-.22-1.175-2.666-2.005-3.928-2.188a2.25 2.25 0 01-1.899-2.54 2.237 2.237 0 012.516-1.914c.698.095 6.828 1.077 7.709 5.815.71 3.807-2.366 6.778-4.294 7.935-.36.214-.754.317-1.145.317" data-color="1"/>
        <path fill="#5C5A58" d="M171.174 114.277a2.24 2.24 0 01-2.152-1.639 2.25 2.25 0 011.546-2.775c.017-.005 2.823-.906 2.952-2.563.092-1.19-2.056-2.63-3.227-3.137a2.256 2.256 0 01-1.178-2.949 2.23 2.23 0 012.926-1.191c.648.275 6.314 2.822 5.941 7.628-.301 3.862-4.038 5.928-6.199 6.541a2.215 2.215 0 01-.609.085" data-color="1"/>
        <path fill="#5C5A58" d="M169.566 124.661a2.25 2.25 0 01-.458-4.449c.017-.004 2.879-.713 3.119-2.356.173-1.186-1.904-2.791-3.002-3.347a2.254 2.254 0 01-.989-3.021 2.231 2.231 0 013.006-.994c.628.318 6.109 3.245 5.414 8.016-.561 3.832-4.43 5.638-6.627 6.102a2.23 2.23 0 01-.463.049" data-color="1"/>
        <path fill="#5C5A58" d="M169.349 134.783a2.242 2.242 0 01-2.177-1.733 2.249 2.249 0 011.665-2.704c.017-.005 2.86-.784 3.06-2.431.144-1.192-1.97-2.744-3.081-3.275a2.253 2.253 0 01-1.062-2.995 2.235 2.235 0 012.982-1.067c.634.303 6.185 3.097 5.603 7.881-.466 3.845-4.289 5.746-6.475 6.263a2.222 2.222 0 01-.515.061" data-color="1"/>
        <path fill="#5C5A58" d="M166.012 144.029a8.92 8.92 0 01-.235-.003 2.244 2.244 0 01-2.167-2.318c.038-1.242 1.083-2.201 2.306-2.177.522.025 2.504-.169 2.923-1.21.327-.811-1.006-2.522-1.81-3.212a2.256 2.256 0 01-.252-3.17 2.23 2.23 0 013.155-.253c.488.418 4.717 4.2 3.056 8.322-1.282 3.186-4.879 4.021-6.976 4.021" data-color="1"/>
        <path fill="#5C5A58" d="M161.774 153.412c-.293 0-.565-.015-.812-.039a2.245 2.245 0 01-2.005-2.46 2.242 2.242 0 012.448-2.015c.484.04 2.45.003 2.924-.974.368-.762-.822-2.518-1.562-3.245-.884-.869-.9-2.292-.036-3.18s2.28-.904 3.165-.036c.453.445 4.372 4.463 2.458 8.426-1.351 2.792-4.471 3.523-6.58 3.523" data-color="1"/>
        <path fill="#5C5A58" d="M156.926 161.092a9.023 9.023 0 01-1.843-.183 2.247 2.247 0 01-1.729-2.663 2.234 2.234 0 012.65-1.737c.48.094 2.438.27 3.012-.65.448-.718-.546-2.592-1.204-3.395a2.255 2.255 0 01.304-3.165 2.23 2.23 0 013.151.307c.403.491 3.871 4.911 1.54 8.642-1.388 2.224-3.877 2.844-5.881 2.844" data-color="1"/>
        <path fill="#5C5A58" d="M151.913 168.695a9.365 9.365 0 01-3.632-.76 2.252 2.252 0 01-1.147-2.964 2.234 2.234 0 012.949-1.153c.449.192 2.329.767 3.081-.016.54-.563.08-2.463-.488-3.578a2.257 2.257 0 01.961-3.026 2.229 2.229 0 013.009.951c.293.565 2.782 5.606-.26 8.775-1.278 1.331-2.925 1.771-4.473 1.771" data-color="1"/>
        <path fill="#5C5A58" d="M115.87 165.544c-2.533 0-5.245-.305-8.132-1.012-5.889-1.438-10.607-6.15-13.644-13.626a1.521 1.521 0 01-.048-.128c-.274-.81-.121-1.673.407-2.309.543-.654 1.365-.954 2.26-.819a2.247 2.247 0 011.899 2.443c1.802 4.069 4.964 8.795 10.184 10.07 15.198 3.714 24.587-5.083 27.918-9.039 4.763-5.66 8.123-11.15 9.037-19.552.047-.424.087-.845.121-1.264a2.246 2.246 0 012.413-2.058 2.246 2.246 0 012.048 2.424c-.037.464-.081.928-.133 1.391-.888 8.156-3.805 14.52-10.068 21.963-2.537 3.014-10.897 11.516-24.262 11.516" data-color="1"/>
        <path fill="#5C5A58" d="M147.724 125.67a2.232 2.232 0 01-2.225-2.054c-.121-1.467.717-2.141 1.179-2.398a2.17 2.17 0 01.945-.358 2.213 2.213 0 012.499 1.899c.205 1.485-.614 2.199-1.078 2.478a2.207 2.207 0 01-1.32.433" data-color="1"/>
        <path fill="#5C5A58" d="M146.816 118.69c-.961 0-1.85-.628-2.142-1.601a27.306 27.306 0 00-3.229-7.023c-2.034-3.137-4.133-5.587-6.236-7.282-.647-.52-1.859-1.042-3.031-1.546-2.366-1.019-4.813-2.072-5.956-4.211a2.253 2.253 0 01.912-3.045 2.232 2.232 0 013.031.917c.402.753 2.353 1.593 3.777 2.205 1.447.623 2.944 1.268 4.065 2.172 2.476 1.993 4.894 4.798 7.188 8.335a31.829 31.829 0 013.765 8.182 2.25 2.25 0 01-2.144 2.897" data-color="1"/>
        <path fill="#5C5A58" d="M97.768 74.002c-.439 0-.831-.088-1.165-.21-2.875-1.052-3.667-5.361-4.064-12.452-.026-.45-.044-.804-.065-1.019-.316-3.351-1.711-7.343-4.263-12.204a2.253 2.253 0 01.936-3.038 2.233 2.233 0 013.023.94c2.83 5.391 4.387 9.929 4.76 13.876.025.251.048.665.077 1.193.26 4.628.678 6.828 1.034 7.87 2.326-2.92 1.646-10.124 1.418-12.536-.263-2.795-1.048-8.039-3.343-11.752a2.256 2.256 0 01.72-3.097 2.232 2.232 0 013.082.724c2.778 4.494 3.697 10.514 3.997 13.701.53 5.612.688 12.534-2.82 16.279-1.239 1.325-2.39 1.725-3.327 1.725" data-color="1"/>
        <path fill="#5C5A58" d="M110.557 67.042c-.486 0-.976-.158-1.387-.484a2.259 2.259 0 01-.367-3.16c.873-1.109 1.076-6.26.02-10.993-.482-2.158-2.64-6.969-6.239-8.074a2.252 2.252 0 01-1.486-2.808 2.238 2.238 0 012.794-1.493c5.321 1.634 8.477 7.707 9.298 11.391.66 2.958 1.791 11.377-.876 14.767a2.231 2.231 0 01-1.757.854" data-color="1"/>
        <path fill="#5C5A58" d="M117.201 63.916c-.316 0-.638-.067-.943-.211-2.831-1.325-3.472-4.835-1.905-10.431a2.24 2.24 0 012.761-1.555 2.25 2.25 0 011.548 2.773c-.953 3.404-.674 4.865-.485 5.151a2.252 2.252 0 011.054 2.973 2.237 2.237 0 01-2.03 1.3" data-color="1"/>
        <path fill="#5C5A58" d="M118.548 50.742c-.315 0-.636-.066-.94-.209a2.251 2.251 0 01-1.088-2.986l.029-.064c.572-1.241 1.798-1.561 2.747-1.258a2.237 2.237 0 011.266 3.333c-.378.605-.87.947-1.378 1.092a2.229 2.229 0 01-.636.092" data-color="1"/>
        <path fill="#5C5A58" d="M122.836 46.323a2.235 2.235 0 01-1.847-.975 2.256 2.256 0 01.577-3.127c2.235-1.543 4.204-1.875 6.472-1.9a2.253 2.253 0 012.263 2.225 2.244 2.244 0 01-2.214 2.272c-1.567.018-2.666.198-3.985 1.109a2.217 2.217 0 01-1.266.396" data-color="1"/>
        <path fill="#5C5A58" d="M126.621 67.645c-.669 0-1.316-.16-1.922-.479a2.253 2.253 0 01-.945-3.034 2.234 2.234 0 012.923-.998c1.199-.288 3.942-4.188 4.83-6.549.407-1.082.675-2.392.932-3.661.114-.552.224-1.091.341-1.597.067-.285.146-.846.222-1.388.362-2.571.658-4.201 1.721-5.15a2.23 2.23 0 013.159.183c.747.843.747 2.094.049 2.935-.195.513-.397 1.95-.497 2.662-.099.7-.184 1.305-.295 1.783-.109.465-.21.964-.315 1.476-.279 1.374-.597 2.93-1.131 4.347-.456 1.213-3.577 7.685-7.401 9.147a4.66 4.66 0 01-1.671.323" data-color="1"/>
        <path fill="#5C5A58" d="M144.816 60.958c-.83 0-1.628-.467-2.015-1.268a2.253 2.253 0 011.036-3.004c2.117-1.032 4.509-1.555 7.113-1.555a2.244 2.244 0 012.238 2.249 2.243 2.243 0 01-2.238 2.248c-1.947 0-3.635.361-5.158 1.103a2.217 2.217 0 01-.976.227" data-color="1"/>
        <path fill="#5C5A58" d="M139.629 65.301c-.493 0-.989-.163-1.402-.498a2.254 2.254 0 01-.339-3.161c.252-.314.51-.621.777-.923a2.232 2.232 0 013.16-.18 2.256 2.256 0 01.179 3.175c-.218.245-.427.495-.631.749a2.229 2.229 0 01-1.744.838" data-color="1"/>
        <path fill="#5C5A58" d="M135.433 75.996h-.026a2.242 2.242 0 01-2.212-2.274 17.412 17.412 0 011.623-7.206 2.23 2.23 0 012.969-1.101 2.25 2.25 0 011.095 2.982 13.022 13.022 0 00-1.212 5.376 2.242 2.242 0 01-2.237 2.223" data-color="1"/>
        <path fill="#5C5A58" d="M147.682 84.696c-.415 0-.831-.037-1.246-.119-1.951-.385-3.434-1.665-4.066-3.513-.785-2.298-.154-5.266 1.536-7.222 2.462-2.847 5.686-4.696 9.586-5.495l.045-.009c3.081-.624 6.384.052 8.08.511a2.249 2.249 0 011.578 2.755 2.235 2.235 0 01-2.742 1.587c-2.226-.602-4.413-.766-6.006-.45a.91.91 0 00-.041.009c-2.959.601-5.289 1.924-7.12 4.042-.639.738-.951 2.025-.682 2.81.099.289.243.474.692.562 1.471.287 3.844-1.139 5.413-2.083l.206-.124c4.69-2.822 8.116-1.805 12.445-.061a2.253 2.253 0 011.244 2.924 2.238 2.238 0 01-2.91 1.25c-3.95-1.592-5.591-1.993-8.48-.255l-.202.122c-1.873 1.129-4.578 2.759-7.33 2.759" data-color="1"/>
        <path fill="#5C5A58" d="M167.198 129.136c-.135 0-.272-.01-.411-.03a2.246 2.246 0 01-1.906-2.042c-.537-.801-.819-1.13-1.653-1.569-.58-.305-1.606-.058-2.693.203-1.679.404-3.977.958-6.014-.509-1.62-1.167-2.455-2.905-2.289-4.766.197-2.201 1.801-4.381 3.99-5.425 4.232-2.018 10.588-2.383 14.541 1.589a2.256 2.256 0 010 3.18 2.23 2.23 0 01-3.165 0c-2.288-2.298-6.579-2.079-9.457-.706-.745.355-1.395 1.146-1.451 1.764-.012.138-.033.37.44.709.374.27 1.385.027 2.362-.209 1.669-.401 3.746-.902 5.813.187 1.959 1.03 2.723 2.185 3.533 3.406.107.163.22.334.342.515.112.164.202.343.266.53.279.812.132 1.678-.395 2.318a2.36 2.36 0 01-1.853.855" data-color="1"/>
        <path fill="#5C5A58" d="M161.61 147.305c-.29 0-.586-.053-.874-.158a2.253 2.253 0 01-1.463-2.283c-.582-1.287-1.17-1.643-2.873-2.072-1.415-.356-5.725-1.44-5.494-5.472.176-3.099 3.111-5.175 7.477-5.29 3.044-.075 5.909 1.194 7.845 3.501a2.256 2.256 0 01-.267 3.168c-.945.8-2.358.679-3.154-.269-1.054-1.255-2.611-1.939-4.305-1.905-1.731.046-3.102.603-3.127 1.052l-.002.006c.113.138.536.45 2.115.847 3.467.873 5.059 2.31 6.314 5.692.063.17.106.348.126.529.096.842-.229 1.647-.871 2.155a2.318 2.318 0 01-1.447.499" data-color="1"/>
        <path fill="#5C5A58" d="M151.377 163.974h-.002a2.244 2.244 0 01-2.236-2.251c.002-1.46-.145-2.034-.653-2.558-.467-.483-1.166-.844-1.974-1.264-.941-.488-2.007-1.04-2.943-1.934-1.235-1.18-1.752-2.824-1.381-4.399.365-1.553 1.558-2.778 3.193-3.28 1.983-.606 4.562-.625 6.421-.044 1.518.476 3.001 1.554 4.405 3.208.525.615 1.027 1.672 1.827 3.534.08.187.147.343.193.445.228.399.336.873.282 1.365a2.241 2.241 0 01-2.472 1.987c-1.309-.147-1.718-1.096-2.112-2.015-.217-.503-.869-2.023-1.144-2.423-1.046-1.223-1.833-1.657-2.309-1.807-1.002-.312-2.666-.29-3.786.053a.91.91 0 00-.102.038.536.536 0 00.068.078c.473.452 1.172.814 1.912 1.198 1.01.523 2.155 1.117 3.129 2.123 1.777 1.834 1.923 3.903 1.922 5.699a2.243 2.243 0 01-2.238 2.247m6.582-8.918" data-color="1"/>
        <path fill="#5C5A58" d="M138.384 175.057a2.249 2.249 0 01-2.18-2.767c.335-1.422.324-2.014-.05-2.642-.345-.578-.942-1.092-1.633-1.688-.803-.691-1.713-1.475-2.418-2.56-.933-1.434-1.059-3.153-.338-4.601.711-1.426 2.153-2.343 3.858-2.452 2.065-.133 4.581.445 6.258 1.439 1.367.812 2.563 2.204 3.553 4.139.37.722.616 1.866.969 3.858.035.204.064.373.086.483.133.453.127.952-.05 1.429a2.236 2.236 0 01-2.882 1.316c-1.211-.457-1.39-1.466-1.562-2.442-.095-.539-.382-2.166-.557-2.619-.74-1.433-1.405-2.037-1.833-2.292-.906-.537-2.527-.9-3.696-.823a.65.65 0 00-.108.014c.01.025.025.056.049.091.356.548.953 1.062 1.585 1.606.862.743 1.841 1.586 2.558 2.791 1.308 2.194.978 4.242.567 5.989a2.24 2.24 0 01-2.176 1.731m6.751-8.255" data-color="1"/>
        <path fill="#5C5A58" d="M120.708 179.978c-.491 0-.984-.162-1.398-.494a2.259 2.259 0 01-.347-3.162c.819-1.025.931-1.398.883-1.894-.053-.54-.323-1.15-.637-1.856-.383-.865-.818-1.845-.975-3.005-.217-1.582.364-3.085 1.552-4.02 1.17-.921 2.754-1.117 4.235-.525 1.731.692 3.553 2.136 4.532 3.593.805 1.197 1.246 2.794 1.311 4.747.024.741-.209 1.751-.677 3.472-.046.169-.085.311-.109.407-.072.45-.277.881-.619 1.229a2.23 2.23 0 01-3.165.021c-.943-.935-.656-1.993-.424-2.842.119-.44.478-1.762.518-2.189-.05-1.328-.322-1.998-.543-2.327-.408-.607-1.28-1.329-2.08-1.748.122.43.323.884.532 1.355.413.931.881 1.985 1.003 3.252.245 2.524-1.114 4.228-1.844 5.143a2.23 2.23 0 01-1.748.843m8.392-3.219" data-color="1"/>
        <path fill="#5C5A58" d="M106.333 177.822a2.243 2.243 0 01-2.191-1.799c-.292-1.439.712-2.165 1.377-2.647.33-.239 1.314-.951 1.602-1.24.669-.944.776-1.511.779-1.767.01-.664-.307-1.696-.733-2.445-.101.316-.178.691-.258 1.081-.193.942-.412 2.01-1.059 3.054-1.277 2.065-3.38 2.523-4.509 2.768a2.234 2.234 0 01-2.661-1.72 2.249 2.249 0 011.713-2.674c1.172-.255 1.468-.445 1.656-.749.225-.365.342-.931.476-1.587.18-.874.384-1.865.937-2.849.716-1.276 2.002-2.073 3.435-2.134 1.481-.058 2.906.686 3.797 2.001.857 1.263 1.71 3.398 1.683 5.318-.02 1.405-.581 2.886-1.671 4.398-.423.587-1.197 1.199-2.57 2.193l-.301.219a2.217 2.217 0 01-1.502.579m2.197-2.691" data-color="1"/>
        <path fill="#5C5A58" d="M161.087 86.637a2.554 2.554 0 01-2.548 2.559 2.554 2.554 0 01-2.547-2.559 2.555 2.555 0 012.547-2.562 2.555 2.555 0 012.548 2.562" data-color="1"/>
        <path fill="#5C5A58" d="M163.185 95.97a2.554 2.554 0 01-2.547 2.562 2.555 2.555 0 01-2.548-2.562 2.553 2.553 0 012.548-2.558 2.552 2.552 0 012.547 2.558" data-color="1"/>
        <path fill="#5C5A58" d="M153.191 101.468a3.036 3.036 0 01-2.729 3.312 3.03 3.03 0 01-3.296-2.743 3.034 3.034 0 012.728-3.31 3.03 3.03 0 013.297 2.741" data-color="1"/>
        <path fill="#5C5A58" d="M154.267 109.863a2.236 2.236 0 01-2.009 2.438 2.23 2.23 0 01-2.428-2.018 2.236 2.236 0 012.009-2.439 2.232 2.232 0 012.428 2.019" data-color="1"/>
        <path fill="#5C5A58" d="M90.323 165.124a6.599 6.599 0 01-3.943-1.304 2.254 2.254 0 01-.45-3.147 2.232 2.232 0 013.133-.451c.367.276 1.02.498 1.648.366.595-.124 1.111-.564 1.534-1.306a2.235 2.235 0 013.054-.837 2.256 2.256 0 01.833 3.068c-1.355 2.381-3.203 3.206-4.514 3.478-.426.089-.86.133-1.295.133" data-color="1"/>
        <path fill="#5C5A58" d="M85.863 151.047c-.288 0-.556-.02-.801-.052a6.611 6.611 0 01-4.572-2.822 2.256 2.256 0 01.599-3.123 2.231 2.231 0 013.108.601c.256.38.8.802 1.436.884.609.077 1.234-.169 1.874-.733a2.23 2.23 0 013.158.209 2.257 2.257 0 01-.207 3.173c-1.674 1.474-3.324 1.863-4.595 1.863" data-color="1"/>
        <path fill="#5C5A58" d="M89.977 139.057c-2.212 0-3.68-.9-4.551-1.708a6.663 6.663 0 01-2.101-4.962 2.241 2.241 0 012.236-2.198h.051a2.243 2.243 0 012.187 2.298c-.01.46.191 1.12.662 1.557.447.414 1.104.58 1.951.492a2.25 2.25 0 01.458 4.474 9.024 9.024 0 01-.893.047" data-color="1"/>
        <path fill="#5C5A58" d="M98.004 130.954c-.373 0-.751-.094-1.099-.291-2.005-1.137-2.71-2.713-2.947-3.834a5.686 5.686 0 01.967-4.491 2.23 2.23 0 013.13-.47 2.255 2.255 0 01.468 3.145 1.202 1.202 0 00-.188.879c.067.315.326.603.771.855a2.253 2.253 0 01.848 3.063 2.235 2.235 0 01-1.95 1.144" data-color="1"/>
        <path fill="#5C5A58" d="M109.528 129.349a2.24 2.24 0 01-2.154-1.646c-.618-2.229-.008-3.843.613-4.805a5.643 5.643 0 013.847-2.489 2.25 2.25 0 01.66 4.448 1.184 1.184 0 00-.751.488c-.176.271-.194.658-.058 1.151a2.25 2.25 0 01-2.157 2.853" data-color="1"/>
        <path fill="#5C5A58" d="M67.423 63.517H44.238A2.244 2.244 0 0142 61.268a2.243 2.243 0 012.238-2.248h23.185a2.243 2.243 0 012.237 2.248 2.243 2.243 0 01-2.237 2.249" data-color="1"/>
    </g>
</svg>