<svg preserveAspectRatio="xMidYMid meet" data-bbox="23.006 38.92 154.087 122.18" viewBox="23.006 38.92 154.087 122.18" xmlns="http://www.w3.org/2000/svg" data-type="color" role="img" aria-label="South Pasadena Animal  Hospital">
    <g>
        <path d="M171.9 116l-10.4 4.4c.2-1.3.3-2.6.3-4v-.8l13.1-5.6c1.8-.8 2.7-2.9 1.9-4.9-.8-1.8-2.9-2.7-4.9-1.9l-10.2 4.4c-.7-22.5-4.5-45.9-20.5-67.4-.8-1.1-2.4-1.3-3.5-.6-1.5 1.1-3.1 2.2-4.7 3.3-10.1 7-20.4 14.1-22.2 23.6-8.4-.9-13.1-.8-21.1-.1-1.8-9.7-12.4-17.1-22.7-24.2-1.3-.9-2.8-1.9-4-2.8-1.2-.8-2.7-.6-3.5.6C43 61.9 39.2 86 38.4 107.8l-10.2-4.4c-1.8-.8-4 .1-4.9 1.9-.8 1.8.1 4 1.9 4.9l13.1 5.6v.8c0 1.3.1 2.7.3 4l-10.4-4.4c-1.8-.8-4 .1-4.9 1.9-.8 1.8.1 4 1.9 4.9l15.3 6.6c6.9 19.1 29.2 31.5 59 31.5h.8c29.8 0 52.2-12.5 59.1-31.5l15.3-6.6c1.8-.8 2.7-2.9 1.9-4.9-.7-2.1-2.9-2.9-4.7-2.1zM77 105.2c-3.1 0-5.6-2.4-5.6-5.5 0-3 2.5-5.5 5.6-5.5s5.6 2.4 5.6 5.5c0 3-2.5 5.5-5.6 5.5zm31.4 10.2l-8 9.2c-.3.3-.7.3-.8 0l-8-9.2c-.3-.3-.1-.9.4-.9h15.9c.5 0 .9.6.5.9zm14.6-10.2c-3.1 0-5.6-2.4-5.6-5.5 0-3 2.5-5.5 5.6-5.5s5.6 2.4 5.6 5.5c.2 3-2.4 5.5-5.6 5.5z" fill="#c7b099" data-color="1"/>
    </g>
</svg>