<svg preserveAspectRatio="xMidYMid meet" data-bbox="23.119 19.9 153.907 160.1" viewBox="23.119 19.9 153.907 160.1" height="200" width="200" xmlns="http://www.w3.org/2000/svg" data-type="color" role="img" aria-label="South Pasadena Animal  Hospital"><defs><style>svg [data-color="1"] {fill: #A8745A;}
svg [data-color="2"] {fill: #A8745A;}</style></defs>
    <g>
        <path d="M53.4 80.7c-.9-.4-1.7-.9-2.6-1.3.8.6 1.7 1 2.6 1.3z" fill="#ff5f42" data-color="1"/>
        <path d="M38.8 174.9c3.2-.5 6.4-1 9.6-1.4 13.3-1.7 11.4-19.2 23.8-31.3 8.6-8.3 14.4-12.7 28.2-14.2 13.9-1.5 21.7-21.2 26.8-26.5l.8 9.2s6.5 2.7 11 8.2c8 9.7 4.9 13.3-.6 17.6-3.8 3-7.3-1.3-13 .2-.1 1.5-.5 3.1-1.5 4.8-7.6 13-8.5 15.5-7.3 23.5 1.3 8 2 8.3 4.3 9.4 2.3 1.1 2.7 3.7 2.8 5.6h53c3.7-101.7-25.3-130.1-25.3-130.1s2.9 5.8 9 25.2c4.7 14.8 4.4 35.6 1.8 50-22.1-43.9-62.5-40.5-83.4-36.5-8.9 1.7-14.4-.2-18.5-5.9C64 83.9 69.7 84.5 73 84c4.3-.6 9.2-5 11.5-8 2.9-3.8-1.1-8.5-4-11.4-2.9-2.9-6.6-6.1-7.3-12.3-.6-5.3-7.8-11.5-9.3-13.3-1.5-1.8-2.4-2.5-4.2-5.8-1.6-3-1.7-10-1.8-12.7 0-.4-.3-.6-.7-.6-.1 0-.2 0-.3.1-2 1.1-5.2 4.2-8.8 12.3-1.5 3.4-4.5-.5-13.1 7.2-1.5 1.3-8-9-10-9.8-2-.8-3.2 15.9.6 21.6 3.3 5.3.6 77.4 13.2 123.6z" fill="#d87d78" data-color="2"/>
    </g>
</svg>