<svg preserveAspectRatio="xMidYMid meet" data-bbox="31.5 20 137 160" viewBox="31.5 20 137 160" height="200" width="200" xmlns="http://www.w3.org/2000/svg" data-type="color" role="img" aria-label="Bird Purinaprolan South Pasadena Animal  Hosp"><defs><style>svg [data-color="1"] {fill: #A8745A;}
svg [data-color="2"] {fill: #495B6D;}
svg [data-color="3"] {fill: #A8745A;}</style></defs>
    <g>
        <path d="M148.354 55.774s29.884.385 16.858 26.927-34.098-20.772-16.858-26.927z" fill="#1B5160" data-color="1"/>
        <path d="M31.5 158.482l77.009-101.553 2.299-23.08s11.494-28.85 35.631-2.308l2.299 25.388s39.944 27.744-4.598 69.241c-22.919 21.352-46.544 23.273-77.006 23.561-20.874.197-35.634 8.751-35.634 8.751z" fill="#BCE2D7" data-color="2"/>
        <path d="M58.801 149.73s13.573-2.788 27.011-8.367c17.107-7.102 36.508-28.99 39.941-52.796 6.13-42.506-66.952 61.163-66.952 61.163z" opacity=".2"/>
        <path fill="#BCE2D7" d="M152.185 41.926c0 12.11-9.777 21.926-21.838 21.926-12.06 0-21.838-9.817-21.838-21.926 0-12.11 9.777-21.926 21.838-21.926 12.06 0 21.838 9.817 21.838 21.926z" data-color="2"/>
        <path fill="#E35725" d="M140.117 38.464l-1.724 8.078 20.114-6.347-11.781-3.173-6.609 1.442z" data-color="3"/>
        <path d="M146.726 37.022l11.781 3.173-18.39-1.731 6.609-1.442z" opacity=".2"/>
        <path fill="#E35725" d="M138.537 46.254l6.321.577 13.649-6.636-19.97 6.059z" data-color="3"/>
        <path d="M99.314 167.017c-.016 0-.032 0-.048-.002a1.028 1.028 0 0 1-.979-1.08c.28-5.908-1.132-18.75-1.146-18.877a1.035 1.035 0 0 1 .909-1.143 1.026 1.026 0 0 1 1.138.913c.058.535 1.444 13.133 1.154 19.204a1.03 1.03 0 0 1-1.028.985z" fill="#1B5160" data-color="1"/>
        <path d="M115.405 180a1.02 1.02 0 0 1-.742-.319c-10.371-10.853-16.358-12.357-19.556-11.709-2.974.604-3.984 3.17-4.026 3.279a1.03 1.03 0 0 1-1.325.602c-.529-.2-.8-.789-.603-1.325.054-.151 1.412-3.717 5.5-4.573 5.406-1.119 12.621 3.011 21.494 12.297a1.033 1.033 0 0 1-.742 1.748z" fill="#1B5160" data-color="1"/>
        <path d="M122.299 171.055c-.183 0-.368-.048-.537-.151-.129-.081-13.126-7.949-22.256-3.14a1.025 1.025 0 0 1-1.39-.434 1.034 1.034 0 0 1 .432-1.395c10.18-5.361 23.72 2.855 24.292 3.206.485.297.635.933.338 1.419a1.026 1.026 0 0 1-.879.495z" fill="#1B5160" data-color="1"/>
        <path d="M122.588 178.845c-.286 0-.571-.119-.774-.353-.117-.133-11.797-13.326-22.244-10.641a1.032 1.032 0 0 1-.511-2.003c11.68-3.009 23.795 10.699 24.304 11.283a1.035 1.035 0 0 1-.775 1.714z" fill="#1B5160" data-color="1"/>
        <path d="M128.336 156.919c-.016 0-.032 0-.048-.002a1.028 1.028 0 0 1-.979-1.08c.28-5.908-1.132-18.75-1.146-18.877a1.035 1.035 0 0 1 .909-1.143 1.022 1.022 0 0 1 1.138.913c.058.535 1.444 13.133 1.154 19.204a1.031 1.031 0 0 1-1.028.985z" fill="#1B5160" data-color="1"/>
        <path d="M144.426 169.902a1.02 1.02 0 0 1-.742-.319c-10.371-10.851-16.346-12.351-19.556-11.709-2.972.604-3.982 3.17-4.024 3.279-.201.533-.8.802-1.325.602-.529-.2-.8-.789-.603-1.323.054-.151 1.412-3.719 5.5-4.575 5.386-1.115 12.621 3.011 21.492 12.297a1.035 1.035 0 0 1-.742 1.748z" fill="#1B5160" data-color="1"/>
        <path d="M151.322 160.957c-.183 0-.368-.048-.535-.151-.133-.083-13.13-7.943-22.26-3.14a1.031 1.031 0 0 1-1.39-.434 1.034 1.034 0 0 1 .432-1.395c10.176-5.355 23.722 2.853 24.294 3.206.485.297.635.933.338 1.419-.193.32-.531.495-.879.495z" fill="#1B5160" data-color="1"/>
        <path d="M151.612 168.747c-.286 0-.571-.119-.774-.353-.117-.133-11.795-13.32-22.246-10.641a1.034 1.034 0 0 1-.511-2.003c11.668-3.005 23.797 10.697 24.306 11.283a1.035 1.035 0 0 1-.775 1.714z" fill="#1B5160" data-color="1"/>
        <path fill="#F9F7F7" d="M132.307 41.926c0 2.362-1.906 4.276-4.258 4.276-2.352 0-4.258-1.914-4.258-4.276s1.906-4.276 4.258-4.276c2.352 0 4.258 1.914 4.258 4.276z" data-color="4"/>
        <path d="M128.048 37.651c-.356 0-.697.057-1.027.14a4.267 4.267 0 0 0-.722 2.38c0 2.361 1.907 4.276 4.258 4.276.356 0 .697-.057 1.027-.14a4.27 4.27 0 0 0 .722-2.38 4.266 4.266 0 0 0-4.258-4.276z" fill="#1B5160" data-color="1"/>
        <path fill="#F9F7F7" d="M145.606 28.391a4.031 4.031 0 0 1-4.023 4.039 4.031 4.031 0 0 1-4.023-4.039 4.031 4.031 0 0 1 4.023-4.039 4.031 4.031 0 0 1 4.023 4.039z" data-color="4"/>
        <path d="M141.583 24.352c-.336 0-.658.054-.971.132a4.03 4.03 0 0 0-.682 2.248 4.03 4.03 0 0 0 4.023 4.039c.336 0 .658-.054.971-.132a4.03 4.03 0 0 0 .682-2.248 4.031 4.031 0 0 0-4.023-4.039z" fill="#1B5160" data-color="1"/>
        <path d="M138.537 46.254l6.321.577 13.649-6.636-19.97 6.059z" opacity=".1"/>
        <path d="M31.5 158.482l77.01-101.553c24.338 5.432 19.686 34.472 9.957 50.211-8.626 13.955-22.152 24.377-36.257 32.306-7.65 4.301-15.851 8.384-24.274 10.958L31.5 158.482z" fill="#1B5160" data-color="1"/>
        <path d="M148.453 53.947s-8.477 4.328-13.218 4.472c0 0 8.902 2.068 13.502-1.491l-.284-2.981z" opacity=".1"/>
    </g>
</svg>