<svg preserveAspectRatio="xMidYMid meet" data-bbox="9.998 21.5 180.002 157.002" viewBox="9.998 21.5 180.002 157.002" height="200" width="200" xmlns="http://www.w3.org/2000/svg" data-type="color" role="img" aria-label="Cat South Pasadena Animal  Hosp"><defs><style>svg [data-color="1"] {fill: #A8745A;}</style></defs>
    <g>
        <path d="M95.153 95.644c0-10.737-8.84-19.365-19.602-19.365s-19.602 8.82-19.602 19.365c0 1.342 1.153 2.493 2.498 2.493 1.345 0 2.498-1.15 2.498-2.493 0-8.053 6.534-14.572 14.798-14.572 8.072 0 14.798 6.519 14.798 14.572 0 1.342 1.153 2.493 2.498 2.493s2.114-1.151 2.114-2.493z" fill="#6A528C" data-color="1"/>
        <path d="M126.286 76.279c-10.762 0-19.602 8.82-19.602 19.365 0 1.342 1.153 2.493 2.498 2.493 1.345 0 2.498-1.15 2.498-2.493 0-8.053 6.534-14.572 14.798-14.572s14.798 6.519 14.798 14.572c0 1.342 1.153 2.493 2.498 2.493 1.345 0 2.498-1.15 2.498-2.493-.384-10.737-9.224-19.365-19.986-19.365z" fill="#6A528C" data-color="1"/>
        <path d="M110.912 142.043a2.439 2.439 0 0 0-3.459 0l-5.381 5.368-5.381-5.368a2.439 2.439 0 0 0-3.459 0 2.426 2.426 0 0 0 0 3.451l5.381 5.368-5.381 5.368a2.426 2.426 0 0 0 0 3.451c.384.383 1.153.767 1.73.767s1.153-.192 1.73-.767l5.381-5.368 5.381 5.368c.384.383 1.153.767 1.73.767s1.153-.192 1.73-.767a2.426 2.426 0 0 0 0-3.451l-5.381-5.368 5.381-5.368a2.428 2.428 0 0 0-.002-3.451z" fill="#6A528C" data-color="1"/>
        <path d="M187.874 142.455l-23.961-6.327c2.126-5.177 3.478-10.545 4.251-16.105l19.71-5.177c1.353-.383 2.126-1.726 1.739-2.876-.386-1.342-1.739-2.109-2.898-1.726l-17.971 4.602c0-1.342.193-2.684.193-4.026 0-16.489-5.99-31.636-15.845-43.523l.193-35.47c0-4.602-1.353-7.861-4.058-9.395-4.251-2.493-9.855.767-10.628 1.15l-30.338 18.406c-.386.192-.773.767-.966 1.15-2.126-.192-4.444-.383-6.57-.383-2.512 0-4.831.192-7.343.383-.193-.575-.58-.959-.966-1.15L62.079 23.581c-.58-.383-6.183-3.643-10.628-1.15-2.705 1.534-4.058 4.602-4.058 9.395l.193 35.47c0 .192 0 .383.193.575-9.468 11.696-15.265 26.459-15.265 42.756 0 1.534 0 3.068.193 4.602l-19.71-5.177c-1.353-.383-2.705.383-2.899 1.726-.386 1.342.386 2.684 1.739 2.876l21.449 5.752c.773 5.368 2.126 10.353 4.058 15.147l-25.507 6.711c-1.353.383-2.126 1.726-1.739 2.876.193 1.15 1.353 1.726 2.319 1.726h.58l26.28-6.902c11.014 22.816 34.589 38.538 61.642 38.538 26.859 0 50.241-15.53 61.448-38.154l24.734 6.519h.58c1.159 0 2.126-.767 2.319-1.726 0-1.153-.773-2.303-2.126-2.686zM142.138 27.963c1.153-.767 4.228-1.917 5.573-1.15.961.575 1.537 2.493 1.537 5.177v30.294c-9.225-9.011-20.948-15.338-34.208-18.023l27.098-16.298zm-88.787 4.218c0-2.684.577-4.602 1.537-5.177 1.537-.767 4.42.383 5.573 1.15l27.097 16.489c-13.26 2.684-25.176 9.395-34.4 18.598l.193-31.06zm47.567 141.69c-24.791 0-46.123-14.188-56.501-34.895l8.456-2.301c1.345-.383 2.114-1.726 1.73-2.876-.384-1.15-1.73-2.109-2.883-1.726l-9.225 2.493c-1.537-4.026-2.883-8.244-3.651-12.654l12.876 1.945h.577c1.153 1.506 2.114.739 2.306-.22.384-1.342-.384-2.684-1.73-2.876l-14.798-4.026c-.192-1.917-.192-3.835-.192-5.944 0-34.703 28.25-63.08 63.227-63.08s63.227 28.184 63.227 63.08c0 1.726 0 3.643-.192 5.368l-16.72 4.41c-1.345.383-2.114 1.726-1.73 2.876s1.345 1.726 2.306 2.329h.577l14.798-4.629c-.769 4.793-2.114 9.203-3.844 13.613l-10.762-2.876c-1.345-.383-2.691.383-2.883 1.726-.384 1.342.384 2.684 1.73 2.876l9.993 2.684c-10.761 20.706-32.093 34.703-56.692 34.703z" fill="#6A528C" data-color="1"/>
    </g>
</svg>